<svg class="svg-icon" style="width: 1.0009765625em; height: 1em;vertical-align: middle;fill: currentColor;overflow: hidden;" viewBox="0 0 1025 1024" version="1.1" xmlns="http://www.w3.org/2000/svg"><path d="M512.040873 0c-282.312218 0-512.040873 229.667345-512.040873 512s229.728655 512 512.040873 512 512.040873-229.667345 512.040873-512-229.728655-512-512.040873-512zM512.040873 989.891191c-263.510478 0-477.870754-214.40115-477.870754-477.891191s214.360276-477.891191 477.870754-477.891191 477.870754 214.40115 477.870754 477.891191-214.360276 477.891191-477.870754 477.891191zM623.809045 224.619487l-85.200495 0c-108.498304-1.083144-122.374805 66.071768-122.374805 138.744581l0 52.84924-47.903564 0c-9.421307-1.083144-17.08506 6.539736-15.961043 15.961043l0 95.807129c-1.124017 9.421307 6.539736 17.044186 15.961043 15.961043l47.903564 0 0 239.497386c-0.98096 9.421307 6.641919 17.044186 16.063226 15.961043l97.544246 0c9.421307 1.083144 17.044186-6.539736 14.060432-15.961043l0.06131-239.497386 79.82565 0c9.421307 1.083144 17.08506-6.539736 15.961043-15.961043l0-95.807129c1.124017-9.421307-6.539736-17.044186-15.961043-15.961043l-79.927833 0 0.102183-47.903564c3.106374-20.395801 3.106374-17.08506 22.030735-15.961043l57.120505 0c4.434758-0.98096 9.15563-0.449607 12.486808-3.678601s5.231789-7.622879 4.128208-12.302878l0-95.807129c1.144454-9.421307-6.519299-17.044186-15.940606-15.961043zM606.723985 318.628188l-40.035445-1.532751c-49.599808 0-53.748453 26.9151-53.748453 54.484174l-0.12262 60.553866c0 4.536942 1.798427 8.869517 4.986549 12.098511 3.188121 3.188121 7.541133 4.986549 12.078074 4.986549l77.986349 0 0 61.69832-77.925039 0c-9.421307 0-17.044186 7.622879-17.08506 17.044186l-0.040873 239.517822-64.641201 0 0-239.497386c0-9.421307-6.417116-17.044186-15.879296-17.044186l-47.985311 0 0-61.69832 47.985311 0c4.536942 0 8.869517-1.777991 12.078074-4.986549 3.188121-3.228995 3.760348-7.561569 3.760348-12.098511l0-68.810282c0-71.58967 14.469165-105.698479 90.432284-105.698479l68.115435 0 0 60.983036z"  /></svg>