<?xml version="1.0" encoding="UTF-8" standalone="no"?>
<svg
   class="svg-icon"
   style="width: 1em; height: 1em;vertical-align: middle;fill: currentColor;overflow: hidden;"
   viewBox="0 0 1024 1024"
   version="1.1"
   id="svg1"
   sodipodi:docname="map-marker.svg"
   inkscape:version="1.3.2 (091e20e, 2023-11-25, custom)"
   xmlns:inkscape="http://www.inkscape.org/namespaces/inkscape"
   xmlns:sodipodi="http://sodipodi.sourceforge.net/DTD/sodipodi-0.dtd"
   xmlns="http://www.w3.org/2000/svg"
   xmlns:svg="http://www.w3.org/2000/svg">
  <defs
     id="defs1" />
  <sodipodi:namedview
     id="namedview1"
     pagecolor="#ffffff"
     bordercolor="#000000"
     borderopacity="0.25"
     inkscape:showpageshadow="2"
     inkscape:pageopacity="0.0"
     inkscape:pagecheckerboard="0"
     inkscape:deskcolor="#d1d1d1"
     inkscape:zoom="0.80175781"
     inkscape:cx="512"
     inkscape:cy="512"
     inkscape:window-width="1920"
     inkscape:window-height="1017"
     inkscape:window-x="1912"
     inkscape:window-y="-3"
     inkscape:window-maximized="1"
     inkscape:current-layer="svg1" />
  <path
     d="M512 853.333333a341.333333 341.333333 0 0 1-341.333333-341.333333 341.333333 341.333333 0 0 1 341.333333-341.333333 341.333333 341.333333 0 0 1 341.333333 341.333333 341.333333 341.333333 0 0 1-341.333333 341.333333m0-768A426.666667 426.666667 0 0 0 85.333333 512a426.666667 426.666667 0 0 0 426.666667 426.666667 426.666667 426.666667 0 0 0 426.666667-426.666667A426.666667 426.666667 0 0 0 512 85.333333m0 448a64 64 0 0 1-64-64A64 64 0 0 1 512 405.333333a64 64 0 0 1 64 64 64 64 0 0 1-64 64m0-226.133333c-89.6 0-162.133333 72.533333-162.133333 162.133333 0 128 162.133333 277.333333 162.133333 277.333334s162.133333-149.333333 162.133333-277.333334c0-89.6-72.533333-162.133333-162.133333-162.133333z"
     fill=""
     id="path1" />
  <path
     style="mix-blend-mode:normal;fill:#fab637;stroke-width:1.24726"
     d="M 485.80755,937.21006 C 327.79836,927.59343 186.43619,829.12444 122.47375,684.1218 54.12695,529.1798 83.636798,349.49273 197.95594,224.5067 264.27375,152.00091 353.7707,104.59466 450.9647,90.488775 c 85.59834,-12.422993 174.17046,1.820453 251.0348,40.369365 111.8573,56.09855 192.80541,157.03021 223.27015,278.38855 14.53192,57.88891 16.50228,120.29196 5.68608,180.0834 -23.47735,129.78173 -109.46774,243.88604 -228.95623,303.81177 -51.43287,25.79456 -107.06691,40.50672 -166.94675,44.14831 -22.54049,1.37081 -25.48412,1.36602 -49.2452,-0.0801 z m 74.21194,-86.56457 c 76.06288,-11.72964 141.23396,-44.39823 193.98443,-97.2394 26.72887,-26.77483 47.86996,-56.34903 64.23926,-89.86407 18.19817,-37.25955 27.95329,-69.60463 33.13858,-109.87772 2.4881,-19.32454 2.81088,-60.03947 0.62696,-79.08208 -11.69479,-101.97208 -67.83876,-193.34477 -152.9198,-248.8726 -41.97778,-27.39664 -87.51346,-44.50907 -139.93604,-52.58832 -18.99812,-2.92796 -75.30764,-2.92796 -94.30576,0 -94.59833,14.57929 -173.95779,62.06084 -228.68196,136.82267 -13.58196,18.55509 -19.82308,28.94582 -31.09003,51.76127 -16.97785,34.37994 -28.6676,74.27059 -33.07801,112.87698 -1.92475,16.84824 -1.92475,57.98732 0,74.83556 4.41041,38.60639 16.10016,78.49704 33.07801,112.87698 11.26695,22.81545 17.50807,33.20618 31.09003,51.76127 57.40087,78.41863 144.69389,128.29678 242.15884,138.36661 16.54772,1.70967 66.0705,0.63238 81.69549,-1.77715 z"
     id="path2" />
  <path
     style="fill:#CC6119;stroke-width:1.24726"
     d="M 494.14912,727.47814 C 423.05516,655.17286 372.58595,576.74754 356.686,513.87089 c -4.96224,-19.6233 -6.7184,-35.78248 -5.74978,-52.90641 4.18226,-73.93719 56.47443,-134.44309 129.59085,-149.9462 17.91266,-3.79808 45.0332,-3.79808 62.94586,0 73.26578,15.53478 125.64503,76.36343 129.65893,150.5745 3.44148,63.6275 -37.05077,146.6168 -114.96658,235.62525 -11.95754,13.65989 -35.69502,38.53735 -42.33053,44.36338 l -4.19611,3.68423 z m 37.2352,-196.82252 c 15.45953,-4.46239 31.04966,-17.45542 38.00688,-31.67547 15.95311,-32.60698 2.98253,-72.33017 -28.49436,-87.26574 -19.91167,-9.44795 -38.31294,-9.38735 -57.99215,0.19098 -37.27967,18.14489 -47.05092,69.21703 -19.17953,100.24719 17.12591,19.06684 42.07165,25.88886 67.65916,18.50304 z"
     id="path3" />
  <path
     style="fill:#CC6119"
     d="M 483.31303,936.48246 C 377.21123,927.6849 284.27631,885.02442 210.78233,811.38102 152.01848,752.49768 112.80758,679.59164 95.382014,596.81364 86.123765,552.83347 84.679997,492.23411 91.816128,447.14251 111.28602,324.11668 182.65892,216.394 288.17327,150.78189 c 136.2134,-84.701733 309.29467,-85.156242 445.70565,-1.17041 108.78312,66.97583 180.09196,175.68987 199.25025,303.76733 3.27172,21.87224 4.52156,72.56994 2.37303,96.25852 -12.88755,142.09177 -95.03824,266.75918 -221.61633,336.31293 -60.84897,33.43605 -134.67058,51.86711 -204.89253,51.15554 -11.3802,-0.11532 -22.93634,-0.39583 -25.68031,-0.62334 z m 83.22058,-86.36336 c 60.17022,-10.50337 112.26763,-33.40269 158.14228,-69.51112 16.74744,-13.18209 47.8976,-45.26782 61.15193,-62.98856 26.40534,-35.30339 48.30871,-81.24232 58.49137,-122.67667 9.85349,-40.0949 12.64725,-92.721 6.93994,-130.72805 C 834.32169,351.42195 765.57104,255.79766 665.15288,205.3622 630.05226,187.73276 582.7811,174.32189 545.05238,171.2896 c -24.5836,-1.97581 -70.43348,-0.60372 -88.89685,2.6603 -150.00252,26.51798 -260.89594,140.1573 -283.37828,290.39515 -4.26116,28.47514 -3.68272,74.74388 1.29745,103.78162 24.91072,145.24636 137.23367,257.55041 281.79863,281.7512 21.94339,3.67341 21.87968,3.67003 60.49208,3.21366 28.82608,-0.34069 38.31133,-0.90269 50.1682,-2.97243 z"
     id="path4" />
</svg>
