<?xml version="1.0" encoding="UTF-8" standalone="no"?>
<svg
   class="svg-icon"
   style="width: 1em; height: 1em;vertical-align: middle;fill: currentColor;overflow: hidden;"
   viewBox="0 0 1024 1024"
   version="1.1"
   id="svg1"
   sodipodi:docname="phone.svg"
   inkscape:version="1.3.2 (091e20e, 2023-11-25, custom)"
   xmlns:inkscape="http://www.inkscape.org/namespaces/inkscape"
   xmlns:sodipodi="http://sodipodi.sourceforge.net/DTD/sodipodi-0.dtd"
   xmlns="http://www.w3.org/2000/svg"
   xmlns:svg="http://www.w3.org/2000/svg">
  <defs
     id="defs1" />
  <sodipodi:namedview
     id="namedview1"
     pagecolor="#ffffff"
     bordercolor="#000000"
     borderopacity="0.25"
     inkscape:showpageshadow="2"
     inkscape:pageopacity="0.0"
     inkscape:pagecheckerboard="0"
     inkscape:deskcolor="#d1d1d1"
     inkscape:zoom="0.80175781"
     inkscape:cx="511.37637"
     inkscape:cy="511.37637"
     inkscape:window-width="1920"
     inkscape:window-height="1080"
     inkscape:window-x="1920"
     inkscape:window-y="5"
     inkscape:window-maximized="1"
     inkscape:current-layer="svg1" />
  <path
     d="M375.2 480.8c36 72.8 94.4 132.8 165.6 169.6l55.2-56.8c6.4-7.2 16.8-9.6 25.6-6.4 28 9.6 58.4 14.4 89.6 14.4 13.6 0 24.8 12 24.8 25.6v89.6c0 14.4-11.2 25.6-24.8 25.6-236 0-427.2-196-427.2-438.4 0-14.4 11.2-25.6 24.8-25.6h88c13.6 0 24.8 11.2 24.8 25.6 0 32 4.8 63.2 14.4 92.8 2.4 8.8 0.8 19.2-6.4 26.4l-54.4 57.6zM512 128c-212 0-384 172-384 384s172 384 384 384 384-172 384-384-172-384-384-384m0-64c247.2 0 448 200.8 448 448s-200.8 448-448 448S64 759.2 64 512 264.8 64 512 64z"
     id="path1" />
  <path
     style="fill:#fab637;stroke-width:1.24726;fill-opacity:1"
     d="M 490.79659,959.01419 C 438.02988,955.78729 388.4895,944.74017 343.08145,926.07483 204.50334,869.11122 103.16984,746.68641 73.642421,600.55542 66.750042,566.44508 65.572745,553.52561 65.572745,512 c 0,-41.52561 1.177297,-54.44508 8.069676,-88.55542 C 107.68367,254.97468 236.4684,120.14277 403.48843,78.110418 440.65118,68.758017 470.93609,65.137301 512,65.137301 c 41.06391,0 71.34882,3.620716 108.51157,12.973117 166.95879,42.016942 295.81775,176.864032 329.80662,345.132892 6.93527,34.33451 8.10907,47.18207 8.10907,88.75669 0,41.57462 -1.1738,54.42218 -8.10907,88.75669 -33.96544,168.15285 -162.92881,303.1102 -329.80662,345.13547 -18.40663,4.63538 -38.71216,8.29386 -59.25318,10.67574 -15.92239,1.84631 -56.96967,3.27139 -70.4618,2.44629 z m 58.17723,-64.15673 c 110.46807,-11.10485 209.35047,-67.71363 274.42338,-157.1035 38.07686,-52.30573 61.66367,-112.23357 70.44485,-178.98173 2.94283,-22.36925 2.94283,-71.17521 0,-93.54446 C 881.99899,375.20535 843.09152,297.36764 778.7801,235.03655 721.04522,179.07948 646.84123,142.97837 564.3849,130.73079 c -21.42452,-3.18227 -83.34528,-3.18227 -104.7698,0 -57.71381,8.57247 -111.67926,28.8601 -158.25869,59.49535 -136.8084,89.97876 -201.760716,255.06081 -162.81302,413.80367 34.20527,139.41367 143.66656,248.1115 284.06079,282.07952 13.72365,3.32041 42.18799,8.01685 55.71982,9.19344 11.92718,1.03707 58.84536,0.74135 70.64982,-0.44531 z"
     id="path2" />
  <path
     style="fill:#fab637;fill-opacity:1;stroke-width:1.24726"
     d="M 679.75639,740.67818 C 619.29996,734.88465 571.25727,721.29889 521.18052,695.83529 479.89262,674.84075 445.20438,649.08384 410.25288,613.4687 333.23777,534.99126 290.30097,434.65051 284.90823,320.54568 c -0.5772,-12.21298 -0.36849,-19.14226 0.69436,-23.05287 1.93725,-7.12787 10.01587,-15.43195 16.86194,-17.33252 6.5442,-1.81677 94.1764,-1.90004 100.67335,-0.0957 6.05667,1.68211 11.68079,6.51126 14.87501,12.77246 2.11393,4.14364 2.75471,8.71278 3.63637,25.92939 1.44432,28.20399 4.42796,46.29349 11.99749,72.73926 3.48135,12.16284 3.38486,17.93153 -0.41848,25.01764 -1.26507,2.357 -15.09588,17.77838 -30.73514,34.26973 l -28.43501,29.98428 7.72292,14.05224 c 29.80182,54.22582 71.95688,100.62071 122.11177,134.39334 13.00141,8.75472 34.46479,21.22283 36.53429,21.22283 0.83752,0 14.68896,-13.54929 30.78098,-30.10953 17.18196,-17.68191 30.93318,-30.80939 33.31631,-31.80512 6.15026,-2.56975 11.293,-2.09163 27.42459,2.54964 20.07194,5.77496 43.30897,9.51351 65.93902,10.60875 15.18445,0.7349 19.8558,1.40449 23.76956,3.4071 6.67126,3.41359 12.58529,12.42431 13.60174,20.72389 0.44053,3.597 0.62078,27.07154 0.40055,52.16564 l -0.40041,45.62563 -3.74178,6.0388 c -2.45613,3.9639 -5.63053,7.03632 -9.2388,8.94197 -5.01781,2.65007 -6.92065,2.88577 -21.82704,2.70356 -8.98151,-0.10979 -18.29445,-0.38786 -20.69543,-0.61795 z"
     id="path3" />
</svg>
